ffmpeg started on 2016-11-27 at 18:55:52
Report written to "Output/NVENCh264/results/ffmpeg/old_town_cross_2160p50llhp1500k.log"
Command line:
Tools/ffmpeg/ffmpeg -benchmark -y -i Input/y4m/old_town_cross_2160p50.y4m -c:v h264_nvenc -preset llhp -b:v 1500k -an Output/NVENCh264/encoded/old_town_cross_2160p50llhp1500k.mkv
ffmpeg version N-82227-gdb23fde Copyright (c) 2000-2016 the FFmpeg developers
  built with gcc 5.4.0 (Ubuntu 5.4.0-6ubuntu1~16.04.2) 20160609
  configuration: --prefix=/home/jaroslav/ffmpeg_build --pkg-config-flags=--static --extra-cflags=-I/home/jaroslav/ffmpeg_build/include --extra-ldflags=-L/home/jaroslav/ffmpeg_build/lib --bindir=/home/jaroslav/bin --enable-gpl --enable-libass --enable-libfdk-aac --enable-libfreetype --enable-libmp3lame --enable-libopus --enable-libtheora --enable-libvorbis --enable-libvpx --enable-libx264 --enable-libx265 --enable-nvenc --enable-libmfx --enable-libxvid --enable-libgsm --enable-libopencore-amrnb --enable-version3 --enable-nonfree
  libavutil      55. 35.100 / 55. 35.100
  libavcodec     57. 66.101 / 57. 66.101
  libavformat    57. 57.100 / 57. 57.100
  libavdevice    57.  2.100 / 57.  2.100
  libavfilter     6. 66.100 /  6. 66.100
  libswscale      4.  3.100 /  4.  3.100
  libswresample   2.  4.100 /  2.  4.100
  libpostproc    54.  2.100 / 54.  2.100
Input #0, yuv4mpegpipe, from 'Input/y4m/old_town_cross_2160p50.y4m':
  Duration: 00:00:10.00, start: 0.000000, bitrate: 4976642 kb/s
    Stream #0:0: Video: rawvideo (I420 / 0x30323449), yuv420p(progressive), 3840x2160, SAR 1:1 DAR 16:9, 50 fps, 50 tbr, 50 tbn, 50 tbc
[h264_nvenc @ 0x2ec8120] The variable bitrate rate-control requires the 'qmin' and/or 'qmax' option set.
Output #0, matroska, to 'Output/NVENCh264/encoded/old_town_cross_2160p50llhp1500k.mkv':
  Metadata:
    encoder         : Lavf57.57.100
    Stream #0:0: Video: h264 (h264_nvenc) (Main) (H264 / 0x34363248), yuv420p, 3840x2160 [SAR 1:1 DAR 16:9], q=-1--1, 1500 kb/s, 50 fps, 1k tbn, 50 tbc
    Metadata:
      encoder         : Lavc57.66.101 h264_nvenc
    Side data:
      cpb: bitrate max/min/avg: 0/0/1500000 buffer size: 3000000 vbv_delay: -1
Stream mapping:
  Stream #0:0 -> #0:0 (rawvideo (native) -> h264 (h264_nvenc))
Press [q] to stop, [?] for help
frame=   19 fps=0.0 q=0.0 size=       0kB time=00:00:00.00 bitrate=N/A speed=   0x    frame=   37 fps= 36 q=47.0 size=       1kB time=00:00:00.12 bitrate=  49.3kbits/s speed=0.119x    frame=   55 fps= 36 q=49.0 size=       1kB time=00:00:00.48 bitrate=  12.4kbits/s speed=0.315x    frame=   73 fps= 36 q=49.0 size=       1kB time=00:00:00.84 bitrate=   7.1kbits/s speed=0.412x    frame=   91 fps= 36 q=49.0 size=       1kB time=00:00:01.20 bitrate=   5.0kbits/s speed=0.47x    frame=  109 fps= 35 q=49.0 size=       1kB time=00:00:01.56 bitrate=   3.8kbits/s speed=0.508x    frame=  127 fps= 35 q=49.0 size=       1kB time=00:00:01.92 bitrate=   3.1kbits/s speed=0.535x    frame=  145 fps= 35 q=48.0 size=       1kB time=00:00:02.28 bitrate=   2.6kbits/s speed=0.556x    frame=  163 fps= 35 q=49.0 size=       1kB time=00:00:02.64 bitrate=   2.3kbits/s speed=0.572x    frame=  181 fps= 35 q=49.0 size=       1kB time=00:00:03.00 bitrate=   2.0kbits/s speed=0.585x    frame=  199 fps= 35 q=49.0 size=       1kB time=00:00:03.36 bitrate=   1.8kbits/s speed=0.595x    frame=  217 fps= 35 q=49.0 size=       1kB time=00:00:03.72 bitrate=   1.6kbits/s speed=0.604x    frame=  235 fps= 35 q=49.0 size=       1kB time=00:00:04.08 bitrate=   1.5kbits/s speed=0.612x    frame=  253 fps= 35 q=49.0 size=       1kB time=00:00:04.44 bitrate=   1.3kbits/s speed=0.618x    frame=  271 fps= 35 q=49.0 size=       1kB time=00:00:04.80 bitrate=   1.2kbits/s speed=0.624x    frame=  289 fps= 35 q=49.0 size=    1171kB time=00:00:05.16 bitrate=1858.8kbits/s speed=0.628x    frame=  307 fps= 35 q=49.0 size=    1171kB time=00:00:05.52 bitrate=1737.6kbits/s speed=0.633x    frame=  325 fps= 35 q=49.0 size=    1171kB time=00:00:05.88 bitrate=1631.2kbits/s speed=0.637x    frame=  343 fps= 35 q=49.0 size=    1171kB time=00:00:06.24 bitrate=1537.2kbits/s speed=0.64x    frame=  361 fps= 35 q=49.0 size=    1171kB time=00:00:06.60 bitrate=1453.3kbits/s speed=0.643x    frame=  379 fps= 35 q=49.0 size=    1171kB time=00:00:06.96 bitrate=1378.2kbits/s speed=0.646x    frame=  397 fps= 35 q=49.0 size=    1171kB time=00:00:07.32 bitrate=1310.4kbits/s speed=0.648x    frame=  415 fps= 35 q=49.0 size=    1171kB time=00:00:07.68 bitrate=1249.0kbits/s speed=0.651x    frame=  433 fps= 35 q=49.0 size=    1171kB time=00:00:08.04 bitrate=1193.1kbits/s speed=0.653x    frame=  451 fps= 35 q=49.0 size=    1171kB time=00:00:08.40 bitrate=1141.9kbits/s speed=0.655x    frame=  469 fps= 35 q=49.0 size=    1171kB time=00:00:08.76 bitrate=1095.0kbits/s speed=0.657x    frame=  487 fps= 35 q=49.0 size=    1171kB time=00:00:09.12 bitrate=1051.8kbits/s speed=0.659x    frame=  500 fps= 35 q=49.0 Lsize=    2596kB time=00:00:09.98 bitrate=2130.6kbits/s speed= 0.7x    
video:2592kB audio:0kB subtitle:0kB other streams:0kB global headers:0kB muxing overhead: 0.163232%
bench: utime=1.088s
bench: maxrss=1396344kB
